<svg width="482" height="433" viewBox="0 0 482 433" fill="none" xmlns="http://www.w3.org/2000/svg">
<path opacity="0.7" fill-rule="evenodd" clip-rule="evenodd" d="M246.771 70.5445C294.365 69.9396 320.532 -0.935486 368.12 0.00936355C413.992 0.920124 472.261 30.0725 480.607 75.1873C490.092 126.461 432.492 164.704 407 210.192C393.718 233.893 373.212 252.921 366.281 279.191C355.74 319.146 382.647 368.476 356.744 400.671C332.669 430.594 283.655 438.44 246.771 427.734C209.884 417.028 202.119 364.325 168.366 345.994C133.155 326.872 83.7995 347.446 52.6124 322.29C19.9277 295.927 0.293099 252.183 0.00215281 210.192C-0.289182 168.145 29.0495 133.026 51.0527 97.1942C72.5355 62.2104 86.5121 8.61057 127.19 3.07173C173.325 -3.21021 200.214 71.1363 246.771 70.5445Z" fill="#F4E8DA"/>
</svg>
