<svg width="507" height="491" viewBox="0 0 507 491" fill="none" xmlns="http://www.w3.org/2000/svg">
<path fill-rule="evenodd" clip-rule="evenodd" d="M493.242 253.866C494.691 298.597 522.489 350.729 494.715 385.834C465.877 422.283 404.158 400.466 361.909 419.862C325.143 436.74 306.302 494.622 266.022 490.821C224.447 486.898 210.775 430.966 180.047 402.702C156.988 381.493 131.354 365.78 107.719 345.215C73.3083 315.274 23.7107 297.027 8.99237 253.866C-6.08435 209.654 -4.21259 149.412 30.1538 117.759C67.0008 83.8205 131.734 121.316 176.76 99.3416C216.872 79.7661 222.974 14.4506 266.022 2.64857C308.131 -8.89625 350.836 19.7605 388.876 41.1875C427.194 62.7712 466.956 87.271 486.325 126.74C505.346 165.503 491.845 210.715 493.242 253.866Z" fill="#F4E8DA"/>
</svg>
