<svg width="434" height="433" viewBox="0 0 434 433" fill="none" xmlns="http://www.w3.org/2000/svg">
<path opacity="0.7" fill-rule="evenodd" clip-rule="evenodd" d="M237.735 4.8288C277.693 -2.85181 321.797 -3.12429 357.092 17.1217C392.409 37.3802 415.736 75.173 428.031 113.987C439.296 149.548 432.767 187.969 422.579 223.854C414.016 254.012 384.052 272.937 374.429 302.774C361.129 344.015 395.981 411.788 356.332 429.269C314.183 447.852 282.255 374.867 237.735 363.043C208.949 355.397 179.572 381.863 150.675 374.647C118.651 366.649 90.8692 346.127 69.4471 321.015C45.6539 293.124 31.1016 259.378 22.0393 223.854C11.0444 180.755 -14.8317 129.114 11.3116 93.1283C38.3057 55.9716 99.435 75.1097 142.224 58.4232C176.825 44.9294 201.263 11.8394 237.735 4.8288Z" fill="#F4E8DA"/>
</svg>
